<svg width="861" height="860" xmlns="http://www.w3.org/2000/svg" xmlns:xlink="http://www.w3.org/1999/xlink" xml:space="preserve" overflow="hidden"><defs><clipPath id="clip0"><rect x="2045" y="1361" width="861" height="860"/></clipPath></defs><g clip-path="url(#clip0)" transform="translate(-2045 -1361)"><path d="M2460.63 1362.54 2457.43 1363.16 2451.46 1364.63 2445.73 1366.54 2439.95 1369.07 2433.67 1372.33 2426.52 1376.64 2413.72 1385.08 2402.64 1392.9 2399.37 1395.24 2393.09 1399.24 2387.12 1402.57 2381.33 1405.22 2375.61 1407.25 2369.76 1408.79 2363.73 1409.77 2357.32 1410.33 2353.94 1410.45 2349.94 1410.45 2335.71 1409.28 2321.06 1407.68 2316.26 1407.19 2307.27 1406.69 2298.9 1406.82 2290.96 1407.49 2283.45 1408.85 2276.24 1410.88 2269.16 1413.65 2262.14 1417.04 2258.57 1419.07 2255.25 1421.17 2247.98 1426.83 2240.84 1433.42 2234.81 1440.26 2232.53 1443.4 2230.68 1446.23 2226.74 1452.94 2222.74 1460.58 2218.8 1468.71 2216.95 1472.83 2212.64 1482.5 2206.61 1494.57 2203.41 1500.18 2202.24 1501.78 2200.33 1504.3 2196.21 1508.98 2191.83 1513.23 2187.03 1517.23 2181.74 1520.93 2175.89 1524.44 2169.3 1527.83 2161.98 1531.21 2157.91 1532.88 2150.52 1536.02 2140.86 1540.76 2135.01 1544.02 2129.65 1547.41 2124.67 1550.98 2120.05 1554.8 2115.62 1558.86 2113.52 1561.02 2110.44 1564.28 2105.09 1571.24 2100.59 1578.76 2096.96 1586.7 2094.19 1595.26 2092.28 1604.31 2091.17 1613.92 2090.93 1624.14 2091.11 1629.5 2091.73 1639.6 2092.16 1643.85 2092.65 1646.5 2093.39 1652.59 2093.88 1659.37 2094.13 1666.39 2094.13 1669.9 2094.07 1673.35 2093.58 1679.75 2092.59 1685.85 2091.05 1691.76 2088.96 1697.55 2086.25 1703.34 2082.92 1709.25 2078.86 1715.41 2076.58 1718.67 2069.69 1728.09 2061.68 1740.04 2057.37 1747.18 2053.87 1753.71 2050.97 1759.93 2048.69 1765.97 2046.85 1772 2046.11 1775.14 2045.68 1777.48 2045.12 1784.75 2045 1793.31 2045.31 1801.13 2045.68 1803.84 2046.23 1807.04 2047.65 1813.2 2049.56 1819.17 2052.14 1825.33 2055.47 1831.86 2059.65 1839.07 2067.84 1851.5 2075.11 1861.73 2078.37 1866.35 2083.79 1874.84 2087.91 1882.85 2090.93 1890.67 2092.84 1898.8 2093.82 1907.48 2093.82 1917.09 2093.08 1928.05 2092.34 1934.21 2091.67 1941.66 2091.05 1954.84 2090.87 1961.18 2091.24 1971.84 2092.16 1978.92 2093.14 1983.48 2095.11 1990.37 2096.96 1995.3 2098.5 1998.99 2102.19 2006.14 2106.75 2012.97 2112.11 2019.44 2118.2 2025.54 2124.97 2031.26 2132.49 2036.5 2140.67 2041.24 2144.98 2043.4 2151.69 2046.6 2155.08 2047.95 2159.2 2049.37 2168.44 2053.5 2177.8 2058.55 2186.11 2063.9 2189.43 2066.49 2191.53 2068.28 2195.28 2071.79 2198.67 2075.54 2201.87 2079.73 2205.01 2084.59 2208.27 2090.38 2213.63 2101.22 2217.94 2110.77 2221.08 2117.66 2226.87 2128.87 2231.18 2135.71 2234.13 2139.83 2238.87 2145.62 2242.5 2149.32 2246.32 2153.07 2254.2 2159.85 2256.97 2161.76 2259.37 2163.24 2265.84 2166.38 2273.29 2169.39 2280.74 2171.92 2284.12 2172.84 2287.02 2173.4 2296.13 2174.2 2307.39 2174.44 2318.97 2174.14 2324.14 2173.64 2335.16 2172.66 2347.97 2171.86 2354.98 2171.73 2361.02 2171.98 2366.25 2172.53 2371.05 2173.46 2375.67 2174.81 2378.01 2175.61 2381.52 2176.91 2387.61 2179.49 2393.09 2182.51 2398.88 2186.33 2402.14 2188.73 2409.66 2194.27 2421.97 2202.89 2431.94 2209.05 2440.56 2213.49 2444.75 2215.21 2449.3 2216.94 2458.6 2219.4 2468.08 2220.75 2477.62 2221 2487.23 2220.14 2496.71 2218.23 2506.19 2215.21 2515.43 2211.09 2519.92 2208.56 2523.55 2206.28 2535.87 2198.09 2542.51 2193.35 2547.07 2190.09 2555.14 2184.67 2562.28 2180.36 2568.74 2177.09 2574.9 2174.75 2581.05 2173.15 2587.58 2172.17 2594.78 2171.73 2598.72 2171.73 2604.33 2171.8 2615.47 2172.53 2619.29 2173.03 2623.29 2173.52 2636.59 2174.2 2643.79 2174.26 2650.81 2174.2 2659.37 2173.7 2664.42 2172.97 2669.09 2171.98 2673.71 2170.56 2680.98 2167.73 2686.46 2165.02 2689.16 2163.73 2693.66 2161.08 2697.78 2158.12 2702.16 2154.37 2704.62 2152.03 2707.08 2149.63 2711.39 2145.13 2715.15 2140.57 2718.65 2135.71 2722.1 2130.1 2725.67 2123.51 2731.77 2111.08 2736.76 2099.99 2738.91 2095.19 2743.47 2086.69 2748.39 2079.3 2753.81 2072.77 2760.09 2066.98 2767.29 2061.69 2775.73 2056.82 2785.52 2052.08 2791.06 2049.68 2799.43 2046.04 2809.46 2041.24 2815.19 2038.04 2820.36 2034.84 2825.04 2031.45 2829.54 2027.75 2833.97 2023.57 2836.31 2021.23 2838.4 2019.01 2842.4 2014.33 2845.97 2009.4 2849.17 2004.23 2851.88 1998.87 2854.16 1993.33 2855.95 1987.73 2857.3 1982.06 2857.73 1979.17 2858.29 1975.59 2858.84 1972.82 2859.09 1971.22 2859.33 1964.14 2859.33 1955.33 2859.09 1948.19 2858.84 1946.53 2858.35 1943.32 2857.36 1933.47 2856.62 1922.02 2856.38 1911.79 2856.5 1908.22 2856.69 1904.96 2857.49 1898.8 2858.84 1892.89 2860.81 1887.04 2863.64 1880.88 2867.28 1874.23 2871.95 1866.9 2877.74 1858.53 2881.13 1853.84 2885.74 1847.38 2891.78 1837.9 2895.29 1831.86 2898.24 1826.07 2900.64 1820.71 2902.49 1815.85 2903.66 1811.41 2904.03 1809.51 2904.65 1805.44 2905.45 1800.27 2905.75 1797.93 2906 1793 2905.88 1787.77 2905.45 1782.35 2904.58 1776.81 2903.41 1771.32 2901.94 1765.91 2900.09 1760.67 2899.1 1758.21 2897.57 1754.76 2893.5 1747.12 2888.52 1738.87 2882.67 1730.37 2879.47 1726.06 2875.59 1720.83 2869.06 1711.22 2863.95 1702.35 2860.2 1693.92 2857.67 1685.54 2856.25 1676.98 2855.82 1667.93 2856.38 1657.95 2856.99 1652.47 2857.67 1646.31 2858.59 1629.87 2858.66 1622.17 2858.66 1614.97 2858.22 1606.53 2857.67 1601.73 2856.75 1597.29 2855.45 1592.98 2852.81 1586.15 2850.22 1580.73 2848.37 1577.03 2844.19 1570.13 2839.32 1563.79 2833.72 1557.88 2827.32 1552.28 2819.99 1547.04 2811.68 1541.99 2802.32 1537.13 2797.21 1534.72 2790.07 1531.52 2782.81 1528.26 2778.19 1526.1 2770.19 1521.73 2763.41 1517.11 2757.44 1512.06 2754.73 1509.17 2751.78 1505.97 2746.67 1499.38 2741.99 1491.74 2737.31 1482.26 2734.72 1476.47 2731.83 1470 2727.03 1459.96 2722.96 1452.27 2718.84 1445.74 2716.56 1442.47 2714.59 1439.76 2711.27 1435.58 2707.7 1431.82 2702.89 1427.45 2699.63 1424.61 2698.15 1423.38 2694.58 1420.92 2690.52 1418.46 2685.96 1416.18 2678.7 1412.98 2671.13 1410.45 2666.2 1409.16 2663.8 1408.73 2660.35 1408.17 2650.38 1407.49 2639.17 1407.31 2629.26 1407.74 2625.81 1408.17 2621.57 1408.85 2609.74 1409.71 2596.88 1410.08 2586.23 1409.77 2583.02 1409.34 2580.69 1408.85 2576.01 1407.56 2571.33 1405.89 2566.53 1403.86 2561.72 1401.46 2556.74 1398.63 2549.1 1393.7 2543.75 1389.7 2537.71 1385.2 2526.32 1377.57 2515.55 1371.41 2507.79 1367.77 2502.68 1365.8 2497.69 1364.14 2492.77 1362.85 2487.84 1361.92 2482.92 1361.31 2478.05 1361 2473.13 1361.06 2468.14 1361.43 2463.16 1362.05 2460.63 1362.54Z" fill="#FFFFFF" fill-rule="evenodd" fill-opacity="0.2"/></g></svg>